<?xml version="1.0" standalone="no"?>
<!DOCTYPE svg PUBLIC "-//W3C//DTD SVG 20010904//EN"
 "http://www.w3.org/TR/2001/REC-SVG-20010904/DTD/svg10.dtd">
<svg version="1.0" xmlns="http://www.w3.org/2000/svg"
 width="512.000000pt" height="512.000000pt" viewBox="0 0 512.000000 512.000000"
 preserveAspectRatio="xMidYMid meet">

<g transform="translate(0.000000,512.000000) scale(0.100000,-0.100000)"
fill="#fff" stroke="none">
<path d="M681 4784 c-169 -45 -301 -180 -346 -351 -23 -86 -23 -3020 0 -3106
46 -178 193 -320 367 -356 37 -8 364 -11 1065 -9 1004 3 1012 3 1039 24 53 39
69 71 69 134 0 63 -16 95 -69 134 -27 21 -37 21 -1046 26 -1009 5 -1019 5
-1046 26 -68 51 -69 52 -72 312 l-3 237 321 320 320 320 202 -202 c172 -171
209 -202 241 -208 91 -17 75 -30 554 448 l443 442 362 -362 c392 -391 385
-385 475 -368 49 9 109 69 118 118 17 91 30 76 -443 549 -384 383 -442 438
-475 443 -92 17 -75 30 -554 -448 l-443 -442 -202 202 c-296 294 -255 300
-636 -80 l-282 -282 2 1037 c3 1029 3 1037 24 1064 11 15 33 37 48 48 27 21
28 21 1526 21 1498 0 1499 0 1526 -21 15 -11 37 -33 48 -48 21 -27 21 -37 26
-1046 5 -1009 5 -1019 26 -1046 39 -53 71 -69 134 -69 63 0 95 16 134 69 21
27 21 35 24 1039 2 701 -1 1028 -9 1065 -36 174 -178 321 -356 367 -85 22
-3030 21 -3112 -1z"/>
<path d="M1641 4144 c-253 -68 -410 -331 -346 -579 67 -256 329 -415 580 -350
256 67 415 329 350 578 -67 259 -333 419 -584 351z m182 -318 c103 -43 128
-177 48 -257 -65 -65 -157 -65 -222 0 -124 123 13 325 174 257z"/>
<path d="M3935 1906 c-37 -17 -70 -52 -84 -89 -7 -17 -11 -127 -11 -282 l0
-254 -269 -3 c-254 -3 -271 -4 -297 -24 -53 -39 -69 -71 -69 -134 0 -63 16
-95 69 -134 26 -20 43 -21 296 -24 l269 -3 3 -269 c3 -253 4 -270 24 -296 39
-53 71 -69 134 -69 63 0 95 16 134 69 20 26 21 43 24 296 l3 269 269 3 c253 3
270 4 296 24 53 39 69 71 69 134 0 63 -16 95 -69 134 -26 20 -43 21 -296 24
l-269 3 -3 269 c-3 253 -4 270 -24 296 -11 15 -32 37 -46 47 -34 25 -113 32
-153 13z"/>
</g>
</svg>
