<?xml version="1.0" encoding="UTF-8"?>
<!DOCTYPE svg PUBLIC "-//W3C//DTD SVG 1.1//EN" "http://www.w3.org/Graphics/SVG/1.1/DTD/svg11.dtd">
<svg xmlns="http://www.w3.org/2000/svg" version="1.1" width="512px" height="512px" style="shape-rendering:geometricPrecision; text-rendering:geometricPrecision; image-rendering:optimizeQuality; fill-rule:evenodd; clip-rule:evenodd" xmlns:xlink="http://www.w3.org/1999/xlink">
<g><path style="opacity:0.969" fill="#000000" d="M 511.5,102.5 C 511.5,111.167 511.5,119.833 511.5,128.5C 507.809,148.548 498.809,165.881 484.5,180.5C 473.821,189.74 463.321,189.407 453,179.5C 449.011,173.233 448.011,166.566 450,159.5C 453.946,153.221 458.279,147.221 463,141.5C 476.162,116.653 472.328,94.8195 451.5,76C 429.5,58 407.5,58 385.5,76C 308,154.833 230.5,233.667 153,312.5C 148.169,323.684 151.336,331.85 162.5,337C 166.261,337.738 169.928,337.405 173.5,336C 228.141,281.025 282.474,225.692 336.5,170C 343.635,165.32 351.302,164.32 359.5,167C 370,173.495 373.166,182.661 369,194.5C 367.667,196.5 366.333,198.5 365,200.5C 310.471,255.362 256.305,310.528 202.5,366C 184.374,379.495 164.707,382.162 143.5,374C 113.809,357.593 103.642,333.093 113,300.5C 116.152,293.024 120.486,286.358 126,280.5C 204.138,200.695 282.638,121.195 361.5,42C 393.241,18.1055 426.908,15.1055 462.5,33C 488.849,49.2275 505.182,72.3942 511.5,102.5 Z"/></g>
<g><path style="opacity:0.966" fill="#000000" d="M -0.5,372.5 C -0.5,362.5 -0.5,352.5 -0.5,342.5C 3.61752,317.994 13.4509,295.994 29,276.5C 97.4725,207.027 166.306,137.861 235.5,69C 242.713,63.3935 250.713,62.0602 259.5,65C 269,70.4784 272.5,78.645 270,89.5C 269.108,92.9518 267.442,95.9518 265,98.5C 197.333,166.167 129.667,233.833 62,301.5C 36.4082,333.704 33.7416,367.704 54,403.5C 69.6222,427.452 91.4555,442.286 119.5,448C 147.151,450.783 171.151,442.783 191.5,424C 258.53,355.304 325.197,286.304 391.5,217C 398.713,211.394 406.713,210.06 415.5,213C 425,218.478 428.5,226.645 426,237.5C 425.194,240.446 423.861,243.112 422,245.5C 353.167,316.333 284.333,387.167 215.5,458C 179.463,487.839 138.797,496.506 93.5,484C 41.365,464.156 10.0317,426.989 -0.5,372.5 Z"/></g>
</svg>
