<?xml version="1.0" encoding="UTF-8"?>
<!DOCTYPE svg PUBLIC "-//W3C//DTD SVG 1.1//EN" "http://www.w3.org/Graphics/SVG/1.1/DTD/svg11.dtd">
<svg xmlns="http://www.w3.org/2000/svg" version="1.1" width="512px" height="512px" style="shape-rendering:geometricPrecision; text-rendering:geometricPrecision; image-rendering:optimizeQuality; fill-rule:evenodd; clip-rule:evenodd" xmlns:xlink="http://www.w3.org/1999/xlink">
<g><path style="opacity:0.967" fill="#000000" d="M -0.5,266.5 C -0.5,259.167 -0.5,251.833 -0.5,244.5C 2.01482,234.8 6.18149,225.8 12,217.5C 72.2808,157.097 132.447,96.5967 192.5,36C 199.635,31.3199 207.302,30.3199 215.5,33C 226,39.4946 229.166,48.6613 225,60.5C 223.667,62.5 222.333,64.5 221,66.5C 162,125.5 103,184.5 44,243.5C 39.0771,252.078 39.4105,260.411 45,268.5C 103.667,327.167 162.333,385.833 221,444.5C 226.606,451.713 227.94,459.713 225,468.5C 219.522,478 211.355,481.5 200.5,479C 197.554,478.194 194.888,476.861 192.5,475C 132.447,414.403 72.2808,353.903 12,293.5C 6.18149,285.2 2.01482,276.2 -0.5,266.5 Z"/></g>
<g><path style="opacity:0.996" fill="#000000" d="M 511.5,249.5 C 511.5,253.5 511.5,257.5 511.5,261.5C 509.348,268.483 504.682,272.983 497.5,275C 372.5,275.667 247.5,275.667 122.5,275C 113.56,271.657 108.56,265.157 107.5,255.5C 108.56,245.843 113.56,239.343 122.5,236C 247.5,235.333 372.5,235.333 497.5,236C 504.682,238.017 509.348,242.517 511.5,249.5 Z"/></g>
</svg>
