<?xml version="1.0" encoding="UTF-8"?>
<!DOCTYPE svg PUBLIC "-//W3C//DTD SVG 1.1//EN" "http://www.w3.org/Graphics/SVG/1.1/DTD/svg11.dtd">
<svg xmlns="http://www.w3.org/2000/svg" version="1.1" width="512px" height="512px" style="shape-rendering:geometricPrecision; text-rendering:geometricPrecision; image-rendering:optimizeQuality; fill-rule:evenodd; clip-rule:evenodd" xmlns:xlink="http://www.w3.org/1999/xlink">
<g><path style="opacity:0.983" fill="#fff" d="M 248.5,-0.5 C 253.167,-0.5 257.833,-0.5 262.5,-0.5C 272.256,2.75863 278.422,9.4253 281,19.5C 281.5,89.4992 281.667,159.499 281.5,229.5C 351.501,229.333 421.501,229.5 491.5,230C 501.575,232.578 508.241,238.744 511.5,248.5C 511.5,253.167 511.5,257.833 511.5,262.5C 508.241,272.256 501.575,278.422 491.5,281C 421.501,281.5 351.501,281.667 281.5,281.5C 281.667,351.501 281.5,421.501 281,491.5C 278.422,501.575 272.256,508.241 262.5,511.5C 257.833,511.5 253.167,511.5 248.5,511.5C 238.744,508.241 232.578,501.575 230,491.5C 229.5,421.501 229.333,351.501 229.5,281.5C 159.499,281.667 89.4992,281.5 19.5,281C 9.4253,278.422 2.75863,272.256 -0.5,262.5C -0.5,257.833 -0.5,253.167 -0.5,248.5C 2.75863,238.744 9.4253,232.578 19.5,230C 89.4992,229.5 159.499,229.333 229.5,229.5C 229.333,159.499 229.5,89.4992 230,19.5C 232.578,9.4253 238.744,2.75863 248.5,-0.5 Z"/></g>
</svg>
