<?xml version="1.0" encoding="UTF-8"?>
<!DOCTYPE svg PUBLIC "-//W3C//DTD SVG 1.1//EN" "http://www.w3.org/Graphics/SVG/1.1/DTD/svg11.dtd">
<svg xmlns="http://www.w3.org/2000/svg" version="1.1" width="512px" height="512px" style="shape-rendering:geometricPrecision; text-rendering:geometricPrecision; image-rendering:optimizeQuality; fill-rule:evenodd; clip-rule:evenodd" xmlns:xlink="http://www.w3.org/1999/xlink">
<g><path style="opacity:0.967" fill="#fff" d="M 511.5,244.5 C 511.5,251.833 511.5,259.167 511.5,266.5C 508.985,276.2 504.819,285.2 499,293.5C 438.719,353.903 378.553,414.403 318.5,475C 311.365,479.68 303.698,480.68 295.5,478C 285,471.505 281.834,462.339 286,450.5C 287.333,448.5 288.667,446.5 290,444.5C 349,385.5 408,326.5 467,267.5C 471.923,258.922 471.59,250.589 466,242.5C 407.333,183.833 348.667,125.167 290,66.5C 284.394,59.2868 283.06,51.2868 286,42.5C 291.478,32.9997 299.645,29.4997 310.5,32C 313.446,32.8061 316.112,34.1395 318.5,36C 378.553,96.5967 438.719,157.097 499,217.5C 504.819,225.8 508.985,234.8 511.5,244.5 Z"/></g>
<g><path style="opacity:0.996" fill="#fff" d="M -0.5,261.5 C -0.5,257.5 -0.5,253.5 -0.5,249.5C 1.65179,242.517 6.31845,238.017 13.5,236C 138.5,235.333 263.5,235.333 388.5,236C 397.44,239.343 402.44,245.843 403.5,255.5C 402.44,265.157 397.44,271.657 388.5,275C 263.5,275.667 138.5,275.667 13.5,275C 6.31845,272.983 1.65179,268.483 -0.5,261.5 Z"/></g>
</svg>
