<?xml version="1.0" encoding="UTF-8"?>
<!DOCTYPE svg PUBLIC "-//W3C//DTD SVG 1.1//EN" "http://www.w3.org/Graphics/SVG/1.1/DTD/svg11.dtd">
<svg xmlns="http://www.w3.org/2000/svg" version="1.1" width="512px" height="512px" style="shape-rendering:geometricPrecision; text-rendering:geometricPrecision; image-rendering:optimizeQuality; fill-rule:evenodd; clip-rule:evenodd" xmlns:xlink="http://www.w3.org/1999/xlink">
<g><path style="opacity:0.98" fill="#000000" d="M 169.5,-0.5 C 182.833,-0.5 196.167,-0.5 209.5,-0.5C 278.071,9.2703 328.571,44.6036 361,105.5C 388.998,167.53 386.331,228.196 353,287.5C 347.321,296.19 341.154,304.523 334.5,312.5C 336.65,315.151 338.983,317.651 341.5,320C 349.5,320.333 357.5,320.667 365.5,321C 414.035,369.701 462.701,418.201 511.5,466.5C 511.5,467.5 511.5,468.5 511.5,469.5C 497.167,483.167 483.167,497.167 469.5,511.5C 468.5,511.5 467.5,511.5 466.5,511.5C 418.201,462.701 369.701,414.035 321,365.5C 320.667,357.5 320.333,349.5 320,341.5C 317.651,338.983 315.151,336.65 312.5,334.5C 259.48,377.832 199.813,390.332 133.5,372C 69.6166,351.082 27.4499,308.582 7,244.5C 3.70469,232.868 1.20469,221.202 -0.5,209.5C -0.5,196.167 -0.5,182.833 -0.5,169.5C 11.882,88.2808 56.882,34.1142 134.5,7C 146.166,3.83985 157.832,1.33985 169.5,-0.5 Z M 179.5,58.5 C 246.224,57.7656 291.391,88.4323 315,150.5C 329.305,205.801 315.472,252.634 273.5,291C 236.602,319.32 195.602,327.32 150.5,315C 88.2848,291.421 57.7848,246.254 59,179.5C 66.114,121.398 97.2806,82.8977 152.5,64C 161.51,61.5034 170.51,59.6701 179.5,58.5 Z"/></g>
</svg>
