<?xml version="1.0" encoding="UTF-8"?>
<!DOCTYPE svg PUBLIC "-//W3C//DTD SVG 1.1//EN" "http://www.w3.org/Graphics/SVG/1.1/DTD/svg11.dtd">
<svg xmlns="http://www.w3.org/2000/svg" version="1.1" width="512px" height="512px" style="shape-rendering:geometricPrecision; text-rendering:geometricPrecision; image-rendering:optimizeQuality; fill-rule:evenodd; clip-rule:evenodd" xmlns:xlink="http://www.w3.org/1999/xlink">
<g><path style="opacity:0.993" fill="#000000" d="M 209.5,-0.5 C 240.167,-0.5 270.833,-0.5 301.5,-0.5C 327.485,5.98594 343.652,22.3193 350,48.5C 350.5,59.8284 350.667,71.1618 350.5,82.5C 392.835,82.3333 435.168,82.5 477.5,83C 486.687,86.1919 491.353,92.6919 491.5,102.5C 491.748,111.068 488.081,117.234 480.5,121C 405.556,122.162 330.556,122.662 255.5,122.5C 180.444,122.662 105.444,122.162 30.5,121C 21.0105,115.563 17.5105,107.397 20,96.5C 21.8333,89.3333 26.3333,84.8333 33.5,83C 75.832,82.5 118.165,82.3333 160.5,82.5C 160.333,71.1618 160.5,59.8284 161,48.5C 167.348,22.3193 183.515,5.98594 209.5,-0.5 Z M 220.5,39.5 C 245.871,39.0576 271.205,39.5576 296.5,41C 302.667,43.1667 306.833,47.3333 309,53.5C 310.324,63.116 310.824,72.7827 310.5,82.5C 273.833,82.5 237.167,82.5 200.5,82.5C 200.176,72.7827 200.676,63.116 202,53.5C 205.773,45.5437 211.94,40.8771 220.5,39.5 Z"/></g>
<g><path style="opacity:0.984" fill="#000000" d="M 359.5,511.5 C 290.167,511.5 220.833,511.5 151.5,511.5C 117.334,504.486 95.5012,484.153 86,450.5C 78.6208,365.904 71.9541,281.237 66,196.5C 65.3333,189.833 65.3333,183.167 66,176.5C 67.9295,169.448 72.4295,164.948 79.5,163C 196.833,162.333 314.167,162.333 431.5,163C 442.4,166.948 447.067,174.781 445.5,186.5C 441.919,241.885 437.752,297.218 433,352.5C 427.963,363.434 419.463,367.601 407.5,365C 396.6,361.052 391.933,353.219 393.5,341.5C 396.63,295.146 399.963,248.812 403.5,202.5C 304.833,202.5 206.167,202.5 107.5,202.5C 113.358,280.158 119.192,357.825 125,435.5C 129.315,457.147 142.481,468.98 164.5,471C 228.188,471.967 291.855,471.634 355.5,470C 374.819,464.001 385.319,450.835 387,430.5C 392.343,419.248 401.176,415.081 413.5,418C 422.511,421.848 426.844,428.681 426.5,438.5C 421.156,478.508 398.822,502.841 359.5,511.5 Z"/></g>
<g><path style="opacity:0.971" fill="#000000" d="M 163.5,242.5 C 178.973,240.631 187.806,247.298 190,262.5C 192.519,314.149 194.186,365.816 195,417.5C 189.491,430.348 179.991,434.515 166.5,430C 159.008,426.162 155.175,419.996 155,411.5C 152.481,359.851 150.814,308.184 150,256.5C 152.182,249.513 156.682,244.846 163.5,242.5 Z"/></g>
<g><path style="opacity:0.991" fill="#000000" d="M 249.5,242.5 C 261.986,240.32 270.486,244.986 275,256.5C 275.667,310.167 275.667,363.833 275,417.5C 268.733,431.15 258.567,434.983 244.5,429C 240.512,426.013 237.679,422.18 236,417.5C 235.333,363.833 235.333,310.167 236,256.5C 238.017,249.318 242.517,244.652 249.5,242.5 Z"/></g>
<g><path style="opacity:0.971" fill="#000000" d="M 335.5,242.5 C 355.999,241.584 364.665,251.418 361.5,272C 359.764,318.504 357.93,365.004 356,411.5C 352.529,429.657 342.029,435.49 324.5,429C 316.101,421.988 313.101,412.988 315.5,402C 317.236,355.496 319.07,308.996 321,262.5C 321.901,252.794 326.734,246.128 335.5,242.5 Z"/></g>
</svg>
