<?xml version="1.0" standalone="no"?>
<!DOCTYPE svg PUBLIC "-//W3C//DTD SVG 20010904//EN"
 "http://www.w3.org/TR/2001/REC-SVG-20010904/DTD/svg10.dtd">
<svg version="1.0" xmlns="http://www.w3.org/2000/svg"
 width="512.000000pt" height="512.000000pt" viewBox="0 0 512.000000 512.000000"
 preserveAspectRatio="xMidYMid meet">

<g transform="translate(0.000000,512.000000) scale(0.100000,-0.100000)"
fill="#000000" stroke="none">
<path d="M2370 5105 c-407 -57 -759 -292 -979 -654 -154 -254 -220 -581 -175
-878 50 -342 219 -644 479 -860 45 -37 48 -42 30 -49 -178 -62 -397 -167 -548
-262 -149 -93 -273 -191 -415 -328 -353 -338 -598 -757 -724 -1238 -26 -100
-32 -140 -32 -231 0 -95 4 -121 28 -190 65 -187 203 -324 391 -387 l70 -23
2065 0 2065 0 70 23 c188 63 326 200 391 387 24 68 28 96 29 190 0 67 -5 125
-14 148 -60 171 -293 184 -368 21 -22 -48 -24 -64 -18 -119 4 -38 2 -80 -5
-106 -15 -56 -81 -123 -135 -138 -29 -8 -599 -11 -2015 -11 -1416 0 -1986 3
-2015 11 -76 21 -145 115 -145 197 0 35 47 214 86 327 70 202 214 461 353 635
75 94 242 261 335 336 521 419 1181 580 1835 448 174 -36 342 -94 516 -179
332 -162 597 -384 820 -688 87 -118 117 -140 199 -145 50 -3 69 1 106 20 90
49 130 170 85 258 -35 69 -185 258 -300 378 -273 285 -610 507 -965 637 -41
15 -79 31 -83 35 -4 4 18 28 50 54 32 27 91 84 131 129 484 535 463 1355 -48
1867 -303 303 -726 444 -1150 385z m373 -406 c193 -39 354 -125 493 -263 139
-140 224 -299 264 -496 74 -360 -88 -759 -395 -970 -75 -52 -225 -118 -321
-142 -126 -31 -322 -31 -448 0 -96 24 -246 90 -321 142 -307 211 -469 610
-395 970 40 197 125 356 264 496 230 229 548 327 859 263z"/>
</g>
</svg>
